<svg width="32" height="32" viewBox="0 0 32 32" fill="none" xmlns="http://www.w3.org/2000/svg">
<g clip-path="url(#clip0_244_56)">
<path opacity="0.2" d="M16 32C24.8366 32 32 24.8366 32 16C32 7.16344 24.8366 0 16 0C7.16344 0 0 7.16344 0 16C0 24.8366 7.16344 32 16 32Z" fill="white"/>
<path d="M17.2973 20.7567H7.78378C6.82848 20.7567 6.05405 21.5311 6.05405 22.4864C6.05405 23.4417 6.82848 24.2162 7.78378 24.2162H17.2973C18.2526 24.2162 19.027 23.4417 19.027 22.4864C19.027 21.5311 18.2526 20.7567 17.2973 20.7567Z" fill="white"/>
<path d="M24.2162 14.7027H7.78378C6.82848 14.7027 6.05405 15.4771 6.05405 16.4324C6.05405 17.3877 6.82848 18.1622 7.78378 18.1622H24.2162C25.1715 18.1622 25.9459 17.3877 25.9459 16.4324C25.9459 15.4771 25.1715 14.7027 24.2162 14.7027Z" fill="white"/>
<path d="M24.2162 8.64862H7.78378C6.82848 8.64862 6.05405 9.42305 6.05405 10.3784C6.05405 11.3337 6.82848 12.1081 7.78378 12.1081H24.2162C25.1715 12.1081 25.9459 11.3337 25.9459 10.3784C25.9459 9.42305 25.1715 8.64862 24.2162 8.64862Z" fill="white"/>
</g>
<defs>
<clipPath id="clip0_244_56">
<rect width="32" height="32" fill="white"/>
</clipPath>
</defs>
</svg>
