<svg width="62" height="44" viewBox="0 0 62 44" fill="none" xmlns="http://www.w3.org/2000/svg">
<g clip-path="url(#clip0_1_482)">
<g opacity="0.146">
<path fill-rule="evenodd" clip-rule="evenodd" d="M43.4769 16.703C46.1581 15.8182 49.0489 15.7942 51.7444 16.6342C54.44 17.4742 56.8053 19.1362 58.5091 21.3876C60.213 23.6389 61.17 26.3668 61.2461 29.1892C61.3223 32.0115 60.5138 34.7871 58.9339 37.127C57.8344 38.7507 56.3953 40.116 54.716 41.1286C53.0368 42.1411 51.1576 42.7768 49.2085 42.9914C47.2594 43.2061 45.2869 42.9946 43.4276 42.3718C41.5682 41.7489 39.8664 40.7295 38.4399 39.3841C36.0913 37.0663 34.5728 34.0385 34.1199 30.77C33.0133 25.0483 33.7419 19.1232 36.2019 13.84C39.0249 7.72505 45.1469 2.06504 49.5409 0.218038C50.1659 -0.0449622 51.7619 -0.281946 52.3149 0.772054C52.7329 1.56505 52.5609 2.75204 51.2739 3.74904C45.0209 8.60104 43.7069 15.961 43.4769 16.703Z" fill="white"/>
<path fill-rule="evenodd" clip-rule="evenodd" d="M9.84998 16.703C12.1207 15.9515 14.55 15.8153 16.8905 16.3083C19.231 16.8013 21.399 17.9059 23.1736 19.5095C24.9482 21.1132 26.266 23.1585 26.9927 25.4373C27.7195 27.7161 27.8292 30.1468 27.3108 32.4817C26.7923 34.8167 25.6642 36.9726 24.0413 38.7296C22.4185 40.4866 20.3588 41.7821 18.0723 42.484C15.7858 43.1859 13.354 43.2692 11.0248 42.7253C8.69566 42.1815 6.55225 41.0299 4.81298 39.388C2.46432 37.0703 0.945842 34.0425 0.492974 30.774C-0.612992 25.0523 0.115634 19.1274 2.57497 13.844C5.39797 7.72904 11.52 2.06903 15.914 0.22203C16.539 -0.0409702 18.135 -0.278015 18.688 0.775985C19.106 1.56898 18.934 2.75604 17.648 3.75304C11.393 8.60104 10.075 15.961 9.84998 16.703Z" fill="white"/>
</g>
</g>
<defs>
<clipPath id="clip0_1_482">
<rect width="61.261" height="43.076" fill="white"/>
</clipPath>
</defs>
</svg>
